<svg width="119" height="38" viewBox="0 0 119 38" fill="none" xmlns="http://www.w3.org/2000/svg">
<g filter="url(#filter0_d_479:50)">
<path d="M109.062 14.2806L114.999 30C113.249 29.7497 111.5 29.4367 109.718 29.1555L106.374 20.4686L102.937 28.4375C101.25 28.1563 99.5928 28.0617 97.9057 27.8433L103.937 14.0932L98.4681 0H103.531L106.593 7.87422L109.875 0H114.999L109.062 14.2806ZM94.4687 0H89.875V27.25C91.3746 27.3437 92.9371 27.4056 94.4687 27.593V0ZM85.9055 26.9369C81.7186 26.6557 77.5308 26.4064 73.2502 26.3117V0H77.9366V21.8746C80.6248 21.9374 83.312 22.1558 85.9055 22.2804V26.9369ZM68.2497 10.6561V15.3435H61.8442V25.9996H57.2187V0H70.3436V4.68741H61.8442V10.6561H68.2497ZM49.3435 4.68741V26.2499C47.781 26.2499 46.1876 26.2499 44.6561 26.3117V4.68741H39.8122V0H54.2184V4.68741H49.3435ZM34.7498 15.5928C32.6878 15.5928 30.2499 15.5928 28.5 15.6875V22.6563C31.25 22.4679 34 22.2495 36.781 22.1558V26.6557L23.8125 27.6877V0H36.781V4.68741H28.5V10.9992C30.3127 10.9992 33.0936 10.9054 34.7498 10.9054V15.5928ZM8.78114 12.9684V29.343C7.09401 29.5314 5.5934 29.7497 4 30V0H8.46902L14.5624 17.0316V0H19.2498V28.0617C17.5936 28.3438 15.9065 28.4375 14.1247 28.6868L8.78114 12.9684Z" fill="black"/>
<path d="M108.601 14.0887L108.525 14.2718L108.595 14.4573L114.231 29.3806C113.418 29.2562 112.606 29.1217 111.786 28.9859C111.223 28.8926 110.655 28.7986 110.082 28.7069L106.841 20.289L106.4 19.1452L105.915 20.2706L102.632 27.8828C101.731 27.7467 100.821 27.6544 99.9229 27.5634C99.4894 27.5194 99.0589 27.4757 98.634 27.4276L104.395 14.294L104.478 14.1049L104.403 13.9123L99.1984 0.5H103.189L106.127 8.05544L106.577 9.21251L107.055 8.06655L110.208 0.5H114.25L108.601 14.0887ZM73.7502 25.8234V0.5H77.4366V21.8746V22.363L77.925 22.3745C79.6342 22.4144 81.332 22.5169 83.0164 22.6186C83.8159 22.6669 84.6123 22.7149 85.4055 22.7561V26.4024C81.553 26.1464 77.6905 25.9213 73.7502 25.8234ZM67.7497 11.1561V14.8435H61.8442H61.3442V15.3435V25.4996H57.7187V0.5H69.8436V4.18741H61.8442H61.3442V4.68741V10.6561V11.1561H61.8442H67.7497ZM49.3435 4.18741H48.8435V4.68741V25.75C47.6175 25.7505 46.3719 25.7551 45.1561 25.7935V4.68741V4.18741H44.6561H40.3122V0.5H53.7184V4.18741H49.3435ZM34.2498 11.4078V15.0929C32.3052 15.0934 30.0983 15.1003 28.4729 15.1882L28 15.2138V15.6875V22.6563V23.1917L28.5341 23.1551C29.0623 23.1189 29.5898 23.0817 30.1168 23.0445C32.1699 22.8996 34.2172 22.7551 36.281 22.6743V26.1939L24.3125 27.1463V0.5H36.281V4.18741H28.5H28V4.68741V10.9992V11.4992H28.5C29.4126 11.4992 30.5667 11.4756 31.694 11.4522L31.7664 11.4507C32.6562 11.4322 33.5253 11.4142 34.2498 11.4078ZM9.25454 12.8075L8.28114 12.9684V28.8969C6.9637 29.0509 5.74898 29.2238 4.5 29.4162V0.5H8.11687L14.0916 17.2L15.0624 17.0316V0.5H18.7498V27.6357C18.0736 27.7384 17.3877 27.8148 16.6818 27.8893C16.5666 27.9015 16.4508 27.9136 16.3344 27.9258C15.7258 27.9894 15.102 28.0547 14.4657 28.1366L9.25454 12.8075ZM93.9687 0.5V27.0335C92.935 26.9262 91.8924 26.8665 90.8822 26.8086C90.7122 26.7988 90.543 26.7891 90.375 26.7793V0.5H93.9687Z" stroke="black"/>
</g>
<defs>
<filter id="filter0_d_479:50" x="0" y="0" width="118.999" height="38" filterUnits="userSpaceOnUse" color-interpolation-filters="sRGB">
<feFlood flood-opacity="0" result="BackgroundImageFix"/>
<feColorMatrix in="SourceAlpha" type="matrix" values="0 0 0 0 0 0 0 0 0 0 0 0 0 0 0 0 0 0 127 0" result="hardAlpha"/>
<feOffset dy="4"/>
<feGaussianBlur stdDeviation="2"/>
<feComposite in2="hardAlpha" operator="out"/>
<feColorMatrix type="matrix" values="0 0 0 0 0 0 0 0 0 0 0 0 0 0 0 0 0 0 0.25 0"/>
<feBlend mode="normal" in2="BackgroundImageFix" result="effect1_dropShadow_479:50"/>
<feBlend mode="normal" in="SourceGraphic" in2="effect1_dropShadow_479:50" result="shape"/>
</filter>
</defs>
</svg>
